G75*
%MOIN*%
%OFA0B0*%
%FSLAX25Y25*%
%IPPOS*%
%LPD*%
%AMOC8*
5,1,8,0,0,1.08239X$1,22.5*
%
%ADD10C,0.00800*%
%ADD11C,0.00600*%
%ADD12C,0.00400*%
%ADD13C,0.01600*%
%ADD14C,0.00300*%
D10*
X0087800Y0170514D02*
X0086332Y0171982D01*
X0086332Y0179322D01*
X0090736Y0179322D01*
X0092204Y0177854D01*
X0092204Y0174918D01*
X0090736Y0173450D01*
X0086332Y0173450D01*
X0087800Y0170514D02*
X0089268Y0170514D01*
X0083364Y0173450D02*
X0083364Y0179322D01*
X0081897Y0179322D01*
X0080429Y0177854D01*
X0078961Y0179322D01*
X0077493Y0177854D01*
X0077493Y0173450D01*
X0080429Y0173450D02*
X0080429Y0177854D01*
X0074525Y0177854D02*
X0074525Y0174918D01*
X0073057Y0173450D01*
X0070121Y0173450D01*
X0068653Y0176386D02*
X0074525Y0176386D01*
X0074525Y0177854D02*
X0073057Y0179322D01*
X0070121Y0179322D01*
X0068653Y0177854D01*
X0068653Y0176386D01*
X0065685Y0173450D02*
X0065685Y0179322D01*
X0061282Y0179322D01*
X0059814Y0177854D01*
X0059814Y0173450D01*
X0056846Y0179322D02*
X0053910Y0179322D01*
X0055378Y0180790D02*
X0055378Y0174918D01*
X0053910Y0173450D01*
X0095172Y0176386D02*
X0101044Y0176386D01*
X0101044Y0174918D02*
X0101044Y0177854D01*
X0099576Y0179322D01*
X0096640Y0179322D01*
X0095172Y0177854D01*
X0095172Y0176386D01*
X0096640Y0173450D02*
X0099576Y0173450D01*
X0101044Y0174918D01*
X0104011Y0174918D02*
X0105479Y0173450D01*
X0108415Y0173450D01*
X0109883Y0174918D01*
X0108415Y0177854D02*
X0105479Y0177854D01*
X0104011Y0176386D01*
X0104011Y0174918D01*
X0108415Y0177854D02*
X0109883Y0179322D01*
X0109883Y0180790D01*
X0108415Y0182258D01*
X0105479Y0182258D01*
X0104011Y0180790D01*
X0112851Y0180790D02*
X0118723Y0174918D01*
X0118723Y0173450D01*
X0121685Y0179322D02*
X0123153Y0179322D01*
X0126089Y0176386D01*
X0126089Y0173450D02*
X0126089Y0179322D01*
X0129057Y0177854D02*
X0129057Y0176386D01*
X0134929Y0176386D01*
X0134929Y0174918D02*
X0134929Y0177854D01*
X0133461Y0179322D01*
X0130525Y0179322D01*
X0129057Y0177854D01*
X0130525Y0173450D02*
X0133461Y0173450D01*
X0134929Y0174918D01*
X0137896Y0174918D02*
X0139364Y0176386D01*
X0142300Y0176386D01*
X0143768Y0177854D01*
X0142300Y0179322D01*
X0137896Y0179322D01*
X0137896Y0174918D02*
X0139364Y0173450D01*
X0143768Y0173450D01*
X0146736Y0173450D02*
X0146736Y0177854D01*
X0148204Y0179322D01*
X0151140Y0179322D01*
X0151140Y0176386D02*
X0146736Y0176386D01*
X0146736Y0173450D02*
X0151140Y0173450D01*
X0152608Y0174918D01*
X0151140Y0176386D01*
X0155576Y0173450D02*
X0161447Y0173450D01*
X0161447Y0182258D01*
X0148930Y0243750D02*
X0145994Y0243750D01*
X0144526Y0245218D01*
X0144526Y0252558D01*
X0141558Y0252558D02*
X0135687Y0243750D01*
X0135687Y0252558D01*
X0132719Y0252558D02*
X0132719Y0243750D01*
X0126847Y0243750D01*
X0129783Y0248154D02*
X0132719Y0248154D01*
X0132719Y0252558D02*
X0126847Y0252558D01*
X0123879Y0252558D02*
X0118007Y0243750D01*
X0115040Y0243750D02*
X0115040Y0252558D01*
X0110636Y0252558D01*
X0109168Y0251090D01*
X0109168Y0248154D01*
X0110636Y0246686D01*
X0115040Y0246686D01*
X0118007Y0252558D02*
X0123879Y0243750D01*
X0120938Y0258150D02*
X0118002Y0258150D01*
X0116534Y0259618D01*
X0116534Y0261086D01*
X0118002Y0262554D01*
X0120938Y0262554D01*
X0122406Y0264022D01*
X0122406Y0265490D01*
X0120938Y0266958D01*
X0118002Y0266958D01*
X0116534Y0265490D01*
X0113566Y0265490D02*
X0113566Y0259618D01*
X0112098Y0258150D01*
X0109163Y0258150D01*
X0107695Y0259618D01*
X0107695Y0265490D01*
X0109163Y0266958D01*
X0112098Y0266958D01*
X0113566Y0265490D01*
X0104727Y0266958D02*
X0104727Y0258150D01*
X0106200Y0252558D02*
X0100328Y0252558D01*
X0097360Y0251090D02*
X0097360Y0245218D01*
X0095893Y0243750D01*
X0092957Y0243750D01*
X0091489Y0245218D01*
X0091489Y0251090D02*
X0092957Y0252558D01*
X0095893Y0252558D01*
X0097360Y0251090D01*
X0095887Y0258150D02*
X0090016Y0258150D01*
X0092951Y0262554D02*
X0095887Y0262554D01*
X0095887Y0266958D02*
X0095887Y0258150D01*
X0098855Y0258150D02*
X0098855Y0266958D01*
X0101791Y0264022D01*
X0104727Y0266958D01*
X0095887Y0266958D02*
X0090016Y0266958D01*
X0087048Y0266958D02*
X0081176Y0266958D01*
X0078208Y0266958D02*
X0078208Y0258150D01*
X0078208Y0262554D02*
X0072336Y0262554D01*
X0072336Y0266958D02*
X0072336Y0258150D01*
X0069369Y0258150D02*
X0066433Y0258150D01*
X0067901Y0258150D02*
X0067901Y0266958D01*
X0069369Y0266958D02*
X0066433Y0266958D01*
X0063475Y0266958D02*
X0057604Y0258150D01*
X0057604Y0266958D01*
X0054636Y0265490D02*
X0054636Y0259618D01*
X0053168Y0258150D01*
X0050232Y0258150D01*
X0048764Y0259618D01*
X0048764Y0262554D01*
X0051700Y0262554D01*
X0054636Y0265490D02*
X0053168Y0266958D01*
X0050232Y0266958D01*
X0048764Y0265490D01*
X0063475Y0266958D02*
X0063475Y0258150D01*
X0066438Y0252558D02*
X0070842Y0252558D01*
X0070842Y0243750D01*
X0066438Y0243750D01*
X0064970Y0245218D01*
X0064970Y0251090D01*
X0066438Y0252558D01*
X0073810Y0252558D02*
X0079681Y0252558D01*
X0079681Y0243750D01*
X0073810Y0243750D01*
X0076745Y0248154D02*
X0079681Y0248154D01*
X0082649Y0252558D02*
X0088521Y0252558D01*
X0085585Y0252558D02*
X0085585Y0243750D01*
X0084112Y0258150D02*
X0084112Y0266958D01*
X0100328Y0243750D02*
X0106200Y0243750D01*
X0106200Y0252558D01*
X0106200Y0248154D02*
X0103264Y0248154D01*
X0120938Y0258150D02*
X0122406Y0259618D01*
X0134213Y0258150D02*
X0140085Y0258150D01*
X0140085Y0266958D01*
X0134213Y0266958D01*
X0137149Y0262554D02*
X0140085Y0262554D01*
X0143053Y0258150D02*
X0147457Y0262554D01*
X0148925Y0261086D02*
X0143053Y0266958D01*
X0148925Y0266958D02*
X0148925Y0258150D01*
X0151892Y0258150D02*
X0151892Y0264022D01*
X0154828Y0266958D01*
X0157764Y0264022D01*
X0157764Y0258150D01*
X0160732Y0258150D02*
X0160732Y0266958D01*
X0163668Y0264022D01*
X0166604Y0266958D01*
X0166604Y0258150D01*
X0157764Y0262554D02*
X0151892Y0262554D01*
X0150398Y0252558D02*
X0150398Y0245218D01*
X0148930Y0243750D01*
X0141558Y0243750D02*
X0141558Y0252558D01*
X0118723Y0182258D02*
X0112851Y0182258D01*
X0112851Y0180790D01*
D11*
X0103641Y0157055D02*
X0103641Y0150650D01*
X0106844Y0150650D01*
X0107911Y0151718D01*
X0107911Y0153853D01*
X0106844Y0154920D01*
X0103641Y0154920D01*
X0101466Y0154920D02*
X0101466Y0150650D01*
X0099331Y0150650D02*
X0099331Y0153853D01*
X0098263Y0154920D01*
X0097196Y0153853D01*
X0097196Y0150650D01*
X0095020Y0151718D02*
X0093953Y0152785D01*
X0090750Y0152785D01*
X0090750Y0153853D02*
X0090750Y0150650D01*
X0093953Y0150650D01*
X0095020Y0151718D01*
X0093953Y0154920D02*
X0091818Y0154920D01*
X0090750Y0153853D01*
X0088575Y0152785D02*
X0085372Y0154920D01*
X0083204Y0153853D02*
X0083204Y0151718D01*
X0082136Y0150650D01*
X0080001Y0150650D01*
X0078933Y0152785D02*
X0078933Y0153853D01*
X0080001Y0154920D01*
X0082136Y0154920D01*
X0083204Y0153853D01*
X0083204Y0152785D02*
X0078933Y0152785D01*
X0076758Y0152785D02*
X0074623Y0154920D01*
X0073556Y0154920D01*
X0076758Y0154920D02*
X0076758Y0150650D01*
X0071387Y0150650D02*
X0070319Y0150650D01*
X0070319Y0151718D01*
X0071387Y0151718D01*
X0071387Y0150650D01*
X0068164Y0151718D02*
X0067097Y0150650D01*
X0063894Y0150650D01*
X0061719Y0151718D02*
X0061719Y0153853D01*
X0060651Y0154920D01*
X0058516Y0154920D01*
X0057448Y0153853D01*
X0057448Y0151718D01*
X0058516Y0150650D01*
X0060651Y0150650D01*
X0061719Y0151718D01*
X0063894Y0154920D02*
X0067097Y0154920D01*
X0068164Y0153853D01*
X0068164Y0151718D01*
X0055273Y0150650D02*
X0055273Y0154920D01*
X0054206Y0154920D01*
X0053138Y0153853D01*
X0052071Y0154920D01*
X0051003Y0153853D01*
X0051003Y0150650D01*
X0053138Y0150650D02*
X0053138Y0153853D01*
X0085372Y0150650D02*
X0088575Y0152785D01*
X0088575Y0150650D02*
X0088575Y0157055D01*
X0099331Y0153853D02*
X0100398Y0154920D01*
X0101466Y0154920D01*
X0110087Y0153853D02*
X0110087Y0152785D01*
X0114357Y0152785D01*
X0114357Y0151718D02*
X0114357Y0153853D01*
X0113289Y0154920D01*
X0111154Y0154920D01*
X0110087Y0153853D01*
X0111154Y0150650D02*
X0113289Y0150650D01*
X0114357Y0151718D01*
X0116519Y0150650D02*
X0117586Y0151718D01*
X0117586Y0155988D01*
X0116519Y0154920D02*
X0118654Y0154920D01*
X0120829Y0154920D02*
X0124032Y0154920D01*
X0125099Y0153853D01*
X0125099Y0151718D01*
X0124032Y0150650D01*
X0120829Y0150650D01*
X0127275Y0152785D02*
X0131545Y0152785D01*
X0131545Y0151718D02*
X0131545Y0153853D01*
X0130477Y0154920D01*
X0128342Y0154920D01*
X0127275Y0153853D01*
X0127275Y0152785D01*
X0128342Y0150650D02*
X0130477Y0150650D01*
X0131545Y0151718D01*
X0133720Y0151718D02*
X0133720Y0153853D01*
X0134788Y0154920D01*
X0137990Y0154920D01*
X0137990Y0148515D01*
X0137990Y0150650D02*
X0134788Y0150650D01*
X0133720Y0151718D01*
X0140166Y0150650D02*
X0144436Y0154920D01*
X0146611Y0153853D02*
X0146611Y0152785D01*
X0150881Y0152785D01*
X0150881Y0151718D02*
X0150881Y0153853D01*
X0149814Y0154920D01*
X0147679Y0154920D01*
X0146611Y0153853D01*
X0147679Y0150650D02*
X0149814Y0150650D01*
X0150881Y0151718D01*
X0153057Y0150650D02*
X0153057Y0153853D01*
X0154124Y0154920D01*
X0157327Y0154920D01*
X0157327Y0150650D01*
X0159502Y0150650D02*
X0159502Y0154920D01*
X0159502Y0150650D02*
X0162705Y0150650D01*
X0163772Y0151718D01*
X0163772Y0154920D01*
X0144436Y0150650D02*
X0140166Y0154920D01*
D12*
X0132182Y0161800D02*
X0132182Y0167004D01*
X0129580Y0167004D01*
X0128712Y0166137D01*
X0128712Y0164402D01*
X0129580Y0163535D01*
X0132182Y0163535D01*
X0130447Y0163535D02*
X0128712Y0161800D01*
X0127026Y0161800D02*
X0123556Y0161800D01*
X0121869Y0163535D02*
X0120134Y0161800D01*
X0118400Y0163535D01*
X0118400Y0167004D01*
X0121869Y0167004D02*
X0121869Y0163535D01*
X0123556Y0167004D02*
X0127026Y0167004D01*
X0127026Y0161800D01*
X0127026Y0164402D02*
X0125291Y0164402D01*
X0111556Y0166137D02*
X0110689Y0167004D01*
X0108954Y0167004D01*
X0108087Y0166137D01*
X0108087Y0165270D01*
X0111556Y0161800D01*
X0108087Y0161800D01*
X0106400Y0162667D02*
X0106400Y0166137D01*
X0105533Y0167004D01*
X0103798Y0167004D01*
X0102930Y0166137D01*
X0106400Y0162667D01*
X0105533Y0161800D01*
X0103798Y0161800D01*
X0102930Y0162667D01*
X0102930Y0166137D01*
X0101244Y0165270D02*
X0099509Y0167004D01*
X0099509Y0161800D01*
X0101244Y0161800D02*
X0097774Y0161800D01*
X0096087Y0162667D02*
X0096087Y0163535D01*
X0095220Y0164402D01*
X0093485Y0164402D01*
X0092618Y0163535D01*
X0092618Y0162667D01*
X0093485Y0161800D01*
X0095220Y0161800D01*
X0096087Y0162667D01*
X0095220Y0164402D02*
X0096087Y0165270D01*
X0096087Y0166137D01*
X0095220Y0167004D01*
X0093485Y0167004D01*
X0092618Y0166137D01*
X0092618Y0165270D01*
X0093485Y0164402D01*
X0090931Y0164402D02*
X0087461Y0164402D01*
X0085774Y0165270D02*
X0084040Y0167004D01*
X0084040Y0161800D01*
X0085774Y0161800D02*
X0082305Y0161800D01*
X0124254Y0053332D02*
X0124254Y0050263D01*
X0124254Y0051798D02*
X0119650Y0051798D01*
X0120417Y0048728D02*
X0119650Y0047961D01*
X0119650Y0046426D01*
X0120417Y0045659D01*
X0124254Y0045659D01*
X0123486Y0044124D02*
X0124254Y0043357D01*
X0124254Y0041822D01*
X0123486Y0041055D01*
X0120417Y0041055D01*
X0119650Y0041822D01*
X0119650Y0043357D01*
X0120417Y0044124D01*
X0123486Y0044124D01*
X0124254Y0048728D02*
X0120417Y0048728D01*
X0114454Y0047861D02*
X0114454Y0045559D01*
X0109850Y0045559D01*
X0109850Y0047861D01*
X0110617Y0048628D01*
X0113686Y0048628D01*
X0114454Y0047861D01*
X0114454Y0044024D02*
X0109850Y0044024D01*
X0114454Y0040955D01*
X0109850Y0040955D01*
X0110617Y0039420D02*
X0112152Y0039420D01*
X0112152Y0037886D01*
X0113686Y0039420D02*
X0114454Y0038653D01*
X0114454Y0037118D01*
X0113686Y0036351D01*
X0110617Y0036351D01*
X0109850Y0037118D01*
X0109850Y0038653D01*
X0110617Y0039420D01*
X0104454Y0039620D02*
X0101384Y0039620D01*
X0099850Y0038086D01*
X0101384Y0036551D01*
X0104454Y0036551D01*
X0104454Y0041155D02*
X0099850Y0041155D01*
X0099850Y0043457D01*
X0100617Y0044224D01*
X0103686Y0044224D01*
X0104454Y0043457D01*
X0104454Y0041155D01*
X0104454Y0045759D02*
X0104454Y0048061D01*
X0103686Y0048828D01*
X0100617Y0048828D01*
X0099850Y0048061D01*
X0099850Y0045759D01*
X0104454Y0045759D01*
X0094254Y0044224D02*
X0089650Y0047294D01*
X0094254Y0047294D01*
X0094254Y0044224D02*
X0089650Y0044224D01*
X0089650Y0042690D02*
X0089650Y0041155D01*
X0089650Y0041922D02*
X0094254Y0041922D01*
X0094254Y0041155D02*
X0094254Y0042690D01*
X0093486Y0039620D02*
X0090417Y0039620D01*
X0089650Y0038853D01*
X0089650Y0036551D01*
X0094254Y0036551D01*
X0094254Y0038853D01*
X0093486Y0039620D01*
X0119650Y0038753D02*
X0119650Y0036451D01*
X0124254Y0036451D01*
X0124254Y0038753D01*
X0123486Y0039520D01*
X0120417Y0039520D01*
X0119650Y0038753D01*
X0167165Y0286500D02*
X0165430Y0288235D01*
X0165430Y0291704D01*
X0168900Y0291704D02*
X0168900Y0288235D01*
X0167165Y0286500D01*
X0166298Y0296500D02*
X0165430Y0297367D01*
X0165430Y0300837D01*
X0166298Y0301704D01*
X0168900Y0301704D01*
X0168900Y0296500D01*
X0166298Y0296500D01*
X0166298Y0306500D02*
X0165430Y0307367D01*
X0165430Y0309102D01*
X0167165Y0309102D01*
X0168900Y0307367D02*
X0168033Y0306500D01*
X0166298Y0306500D01*
X0168900Y0307367D02*
X0168900Y0310837D01*
X0168033Y0311704D01*
X0166298Y0311704D01*
X0165430Y0310837D01*
X0156783Y0301704D02*
X0157650Y0300837D01*
X0157650Y0297367D01*
X0156783Y0296500D01*
X0155048Y0296500D01*
X0154180Y0297367D01*
X0154180Y0300837D01*
X0155048Y0301704D01*
X0156783Y0301704D01*
X0152494Y0301704D02*
X0152494Y0297367D01*
X0151626Y0296500D01*
X0149891Y0296500D01*
X0149024Y0297367D01*
X0149024Y0301704D01*
X0147337Y0301704D02*
X0143868Y0301704D01*
X0145602Y0301704D02*
X0145602Y0296500D01*
X0062944Y0296350D02*
X0061209Y0296350D01*
X0062077Y0296350D02*
X0062077Y0301554D01*
X0062944Y0301554D02*
X0061209Y0301554D01*
X0059506Y0301554D02*
X0056037Y0296350D01*
X0056037Y0301554D01*
X0059506Y0301554D02*
X0059506Y0296350D01*
X0048256Y0296350D02*
X0045654Y0296350D01*
X0044787Y0297217D01*
X0044787Y0300687D01*
X0045654Y0301554D01*
X0048256Y0301554D01*
X0048256Y0296350D01*
X0048256Y0291554D02*
X0048256Y0288085D01*
X0046522Y0286350D01*
X0044787Y0288085D01*
X0044787Y0291554D01*
X0045654Y0306350D02*
X0044787Y0307217D01*
X0044787Y0308952D01*
X0046522Y0308952D01*
X0048256Y0307217D02*
X0047389Y0306350D01*
X0045654Y0306350D01*
X0048256Y0307217D02*
X0048256Y0310687D01*
X0047389Y0311554D01*
X0045654Y0311554D01*
X0044787Y0310687D01*
D13*
X0030350Y0041600D02*
X0022850Y0041600D01*
X0022850Y0051600D02*
X0030350Y0051600D01*
X0096600Y0034100D02*
X0096600Y0024100D01*
X0106600Y0024100D02*
X0106600Y0034100D01*
X0116600Y0034100D02*
X0116600Y0024100D01*
X0181600Y0041600D02*
X0190350Y0041600D01*
X0190350Y0051600D02*
X0182850Y0051600D01*
D14*
X0179699Y0048102D02*
X0179699Y0045200D01*
X0178248Y0045200D01*
X0177764Y0045683D01*
X0177764Y0047618D01*
X0178248Y0048102D01*
X0179699Y0048102D01*
X0176752Y0047618D02*
X0176752Y0045683D01*
X0176269Y0045200D01*
X0175301Y0045200D01*
X0174817Y0045683D01*
X0174817Y0047618D01*
X0175301Y0048102D01*
X0176269Y0048102D01*
X0176752Y0047618D01*
X0176269Y0055350D02*
X0175301Y0055350D01*
X0174817Y0055833D01*
X0174817Y0057768D01*
X0175301Y0058252D01*
X0176269Y0058252D01*
X0176752Y0057768D01*
X0176752Y0055833D01*
X0176269Y0055350D01*
X0177764Y0056317D02*
X0177764Y0058252D01*
X0179699Y0058252D02*
X0179699Y0056317D01*
X0178731Y0055350D01*
X0177764Y0056317D01*
X0178048Y0037852D02*
X0177564Y0037368D01*
X0178048Y0037852D02*
X0179015Y0037852D01*
X0179499Y0037368D01*
X0179499Y0035433D01*
X0179015Y0034950D01*
X0178048Y0034950D01*
X0177564Y0035433D01*
X0177564Y0036401D01*
X0178531Y0036401D01*
X0176552Y0037368D02*
X0176552Y0035433D01*
X0176069Y0034950D01*
X0175101Y0034950D01*
X0174617Y0035433D01*
X0174617Y0037368D01*
X0175101Y0037852D01*
X0176069Y0037852D01*
X0176552Y0037368D01*
X0037660Y0037368D02*
X0037660Y0035433D01*
X0037176Y0034950D01*
X0036208Y0034950D01*
X0035725Y0035433D01*
X0035725Y0036401D01*
X0036692Y0036401D01*
X0035725Y0037368D02*
X0036208Y0037852D01*
X0037176Y0037852D01*
X0037660Y0037368D01*
X0034713Y0037852D02*
X0033746Y0037852D01*
X0034229Y0037852D02*
X0034229Y0034950D01*
X0033746Y0034950D02*
X0034713Y0034950D01*
X0034713Y0045100D02*
X0033746Y0045100D01*
X0034229Y0045100D02*
X0034229Y0048002D01*
X0033746Y0048002D02*
X0034713Y0048002D01*
X0035725Y0047518D02*
X0036208Y0048002D01*
X0037660Y0048002D01*
X0037660Y0045100D01*
X0036208Y0045100D01*
X0035725Y0045583D01*
X0035725Y0047518D01*
X0034763Y0055300D02*
X0033796Y0055300D01*
X0034279Y0055300D02*
X0034279Y0058202D01*
X0033796Y0058202D02*
X0034763Y0058202D01*
X0035775Y0058202D02*
X0035775Y0056267D01*
X0036742Y0055300D01*
X0037710Y0056267D01*
X0037710Y0058202D01*
X0101790Y0293844D02*
X0100094Y0295540D01*
X0102111Y0298014D01*
X0101598Y0299011D01*
X0101257Y0300078D01*
X0098081Y0300400D01*
X0098081Y0302800D01*
X0101257Y0303122D01*
X0101598Y0304189D01*
X0102111Y0305186D01*
X0100094Y0307660D01*
X0101790Y0309356D01*
X0104264Y0307339D01*
X0105261Y0307852D01*
X0106328Y0308193D01*
X0106650Y0311369D01*
X0109050Y0311369D01*
X0109372Y0308193D01*
X0110439Y0307852D01*
X0111436Y0307339D01*
X0113910Y0309356D01*
X0115606Y0307660D01*
X0113589Y0305186D01*
X0114102Y0304189D01*
X0114443Y0303122D01*
X0117619Y0302800D01*
X0117619Y0300400D01*
X0114443Y0300078D01*
X0114102Y0299011D01*
X0113589Y0298014D01*
X0115606Y0295540D01*
X0113910Y0293844D01*
X0111436Y0295861D01*
X0110440Y0295348D01*
X0109027Y0298758D01*
X0109559Y0299042D01*
X0110025Y0299425D01*
X0110408Y0299891D01*
X0110692Y0300423D01*
X0110867Y0301000D01*
X0110926Y0301600D01*
X0110861Y0302228D01*
X0110669Y0302830D01*
X0110359Y0303380D01*
X0109942Y0303855D01*
X0109438Y0304235D01*
X0108866Y0304503D01*
X0108252Y0304650D01*
X0107620Y0304667D01*
X0106999Y0304556D01*
X0106413Y0304320D01*
X0105888Y0303969D01*
X0105445Y0303518D01*
X0105104Y0302986D01*
X0104879Y0302396D01*
X0104779Y0301773D01*
X0104808Y0301142D01*
X0104966Y0300530D01*
X0105246Y0299964D01*
X0105635Y0299466D01*
X0106117Y0299059D01*
X0106673Y0298758D01*
X0105260Y0295348D01*
X0104264Y0295861D01*
X0101790Y0293844D01*
X0101715Y0293919D02*
X0101882Y0293919D01*
X0102248Y0294217D02*
X0101417Y0294217D01*
X0101118Y0294516D02*
X0102614Y0294516D01*
X0102980Y0294814D02*
X0100820Y0294814D01*
X0100521Y0295113D02*
X0103346Y0295113D01*
X0103712Y0295411D02*
X0100223Y0295411D01*
X0100232Y0295710D02*
X0104078Y0295710D01*
X0104558Y0295710D02*
X0105410Y0295710D01*
X0105534Y0296008D02*
X0100476Y0296008D01*
X0100719Y0296307D02*
X0105657Y0296307D01*
X0105781Y0296605D02*
X0100963Y0296605D01*
X0101206Y0296904D02*
X0105905Y0296904D01*
X0106028Y0297202D02*
X0101450Y0297202D01*
X0101693Y0297501D02*
X0106152Y0297501D01*
X0106276Y0297799D02*
X0101936Y0297799D01*
X0102068Y0298098D02*
X0106399Y0298098D01*
X0106523Y0298396D02*
X0101915Y0298396D01*
X0101761Y0298695D02*
X0106647Y0298695D01*
X0106238Y0298994D02*
X0101607Y0298994D01*
X0101508Y0299292D02*
X0105841Y0299292D01*
X0105537Y0299591D02*
X0101413Y0299591D01*
X0101317Y0299889D02*
X0105304Y0299889D01*
X0105135Y0300188D02*
X0100177Y0300188D01*
X0098081Y0300486D02*
X0104988Y0300486D01*
X0104901Y0300785D02*
X0098081Y0300785D01*
X0098081Y0301083D02*
X0104824Y0301083D01*
X0104797Y0301382D02*
X0098081Y0301382D01*
X0098081Y0301680D02*
X0104783Y0301680D01*
X0104812Y0301979D02*
X0098081Y0301979D01*
X0098081Y0302277D02*
X0104860Y0302277D01*
X0104947Y0302576D02*
X0098081Y0302576D01*
X0098815Y0302874D02*
X0105061Y0302874D01*
X0105224Y0303173D02*
X0101273Y0303173D01*
X0101368Y0303471D02*
X0105415Y0303471D01*
X0105692Y0303770D02*
X0101464Y0303770D01*
X0101559Y0304068D02*
X0106037Y0304068D01*
X0106530Y0304367D02*
X0101690Y0304367D01*
X0101843Y0304665D02*
X0107609Y0304665D01*
X0107695Y0304665D02*
X0113857Y0304665D01*
X0114010Y0304367D02*
X0109157Y0304367D01*
X0109659Y0304068D02*
X0114140Y0304068D01*
X0114236Y0303770D02*
X0110017Y0303770D01*
X0110279Y0303471D02*
X0114332Y0303471D01*
X0114427Y0303173D02*
X0110476Y0303173D01*
X0110644Y0302874D02*
X0116885Y0302874D01*
X0117619Y0302576D02*
X0110750Y0302576D01*
X0110846Y0302277D02*
X0117619Y0302277D01*
X0117619Y0301979D02*
X0110887Y0301979D01*
X0110918Y0301680D02*
X0117619Y0301680D01*
X0117619Y0301382D02*
X0110904Y0301382D01*
X0110875Y0301083D02*
X0117619Y0301083D01*
X0117619Y0300785D02*
X0110802Y0300785D01*
X0110711Y0300486D02*
X0117619Y0300486D01*
X0115523Y0300188D02*
X0110566Y0300188D01*
X0110406Y0299889D02*
X0114383Y0299889D01*
X0114287Y0299591D02*
X0110161Y0299591D01*
X0109863Y0299292D02*
X0114192Y0299292D01*
X0114093Y0298994D02*
X0109467Y0298994D01*
X0109053Y0298695D02*
X0113939Y0298695D01*
X0113785Y0298396D02*
X0109177Y0298396D01*
X0109301Y0298098D02*
X0113632Y0298098D01*
X0113764Y0297799D02*
X0109424Y0297799D01*
X0109548Y0297501D02*
X0114007Y0297501D01*
X0114250Y0297202D02*
X0109672Y0297202D01*
X0109795Y0296904D02*
X0114494Y0296904D01*
X0114737Y0296605D02*
X0109919Y0296605D01*
X0110043Y0296307D02*
X0114981Y0296307D01*
X0115224Y0296008D02*
X0110166Y0296008D01*
X0110290Y0295710D02*
X0111142Y0295710D01*
X0111622Y0295710D02*
X0115467Y0295710D01*
X0115477Y0295411D02*
X0111988Y0295411D01*
X0112354Y0295113D02*
X0115179Y0295113D01*
X0114880Y0294814D02*
X0112720Y0294814D01*
X0113086Y0294516D02*
X0114582Y0294516D01*
X0114283Y0294217D02*
X0113452Y0294217D01*
X0113818Y0293919D02*
X0113985Y0293919D01*
X0110563Y0295411D02*
X0110414Y0295411D01*
X0105286Y0295411D02*
X0105137Y0295411D01*
X0101997Y0304964D02*
X0113703Y0304964D01*
X0113651Y0305262D02*
X0102049Y0305262D01*
X0101806Y0305561D02*
X0113894Y0305561D01*
X0114138Y0305859D02*
X0101562Y0305859D01*
X0101319Y0306158D02*
X0114381Y0306158D01*
X0114625Y0306456D02*
X0101075Y0306456D01*
X0100832Y0306755D02*
X0114868Y0306755D01*
X0115111Y0307053D02*
X0100589Y0307053D01*
X0100345Y0307352D02*
X0104248Y0307352D01*
X0104290Y0307352D02*
X0111410Y0307352D01*
X0111452Y0307352D02*
X0115355Y0307352D01*
X0115598Y0307650D02*
X0111818Y0307650D01*
X0112184Y0307949D02*
X0115317Y0307949D01*
X0115018Y0308247D02*
X0112550Y0308247D01*
X0112916Y0308546D02*
X0114720Y0308546D01*
X0114421Y0308844D02*
X0113283Y0308844D01*
X0113649Y0309143D02*
X0114123Y0309143D01*
X0110830Y0307650D02*
X0104870Y0307650D01*
X0105564Y0307949D02*
X0110136Y0307949D01*
X0109367Y0308247D02*
X0106333Y0308247D01*
X0106364Y0308546D02*
X0109336Y0308546D01*
X0109306Y0308844D02*
X0106394Y0308844D01*
X0106424Y0309143D02*
X0109276Y0309143D01*
X0109245Y0309441D02*
X0106455Y0309441D01*
X0106485Y0309740D02*
X0109215Y0309740D01*
X0109185Y0310038D02*
X0106515Y0310038D01*
X0106546Y0310337D02*
X0109154Y0310337D01*
X0109124Y0310635D02*
X0106576Y0310635D01*
X0106606Y0310934D02*
X0109094Y0310934D01*
X0109063Y0311232D02*
X0106637Y0311232D01*
X0103882Y0307650D02*
X0100102Y0307650D01*
X0100383Y0307949D02*
X0103516Y0307949D01*
X0103150Y0308247D02*
X0100682Y0308247D01*
X0100980Y0308546D02*
X0102784Y0308546D01*
X0102417Y0308844D02*
X0101279Y0308844D01*
X0101577Y0309143D02*
X0102051Y0309143D01*
M02*
