%
M48
M72
T01C0.02165
T02C0.02362
T03C0.04400
T04C0.10000
%
T01
X49800Y34400
X49602Y56600
X69100Y66600
X144100Y56600
X171295Y40045
X171600Y49100
X180350Y29100
X189100Y64100
X159050Y141850
X157850Y195350
X172850Y196600
X161600Y289100
X74100Y277850
T02
X34100Y30350
X179100Y64100
T03
X179100Y289100
X179100Y299100
X179100Y309100
X34100Y309100
X34100Y299100
X34100Y289100
T04
X36600Y171600
X176600Y171600
M30
