G75*
%MOIN*%
%OFA0B0*%
%FSLAX25Y25*%
%IPPOS*%
%LPD*%
%AMOC8*
5,1,8,0,0,1.08239X$1,22.5*
%
%ADD10C,0.10800*%
%ADD11R,0.06706X0.04343*%
%ADD12R,0.05918X0.06706*%
%ADD13R,0.06706X0.05918*%
%ADD14R,0.04146X0.04737*%
%ADD15C,0.08200*%
D10*
X0036600Y0171600D03*
X0176600Y0171600D03*
D11*
X0178746Y0115596D03*
X0178746Y0102604D03*
X0159454Y0102604D03*
X0159454Y0115596D03*
X0114346Y0165104D03*
X0114346Y0178096D03*
X0095054Y0178096D03*
X0095054Y0165104D03*
X0050246Y0115596D03*
X0050246Y0102604D03*
X0030954Y0102604D03*
X0030954Y0115596D03*
X0095054Y0053096D03*
X0095054Y0040104D03*
X0114346Y0040104D03*
X0114346Y0053096D03*
X0159454Y0227604D03*
X0159454Y0240596D03*
X0178746Y0240596D03*
X0178746Y0227604D03*
X0114346Y0290104D03*
X0114346Y0303096D03*
X0095054Y0303096D03*
X0095054Y0290104D03*
X0050246Y0240596D03*
X0050246Y0227604D03*
X0030954Y0227604D03*
X0030954Y0240596D03*
D12*
X0041610Y0094100D03*
X0049090Y0094100D03*
X0121610Y0165350D03*
X0129090Y0165350D03*
X0170360Y0217850D03*
X0177840Y0217850D03*
X0129540Y0289750D03*
X0122060Y0289750D03*
X0049090Y0217850D03*
X0041610Y0217850D03*
X0124110Y0040350D03*
X0131590Y0040350D03*
X0170360Y0094100D03*
X0177840Y0094100D03*
D13*
X0055350Y0290360D03*
X0055350Y0297840D03*
D14*
X0180655Y0053490D03*
X0187545Y0053490D03*
X0187545Y0039710D03*
X0180655Y0039710D03*
D15*
X0182800Y0289100D02*
X0175400Y0289100D01*
X0175400Y0299100D02*
X0182800Y0299100D01*
X0182800Y0309100D02*
X0175400Y0309100D01*
X0037800Y0309100D02*
X0030400Y0309100D01*
X0030400Y0299100D02*
X0037800Y0299100D01*
X0037800Y0289100D02*
X0030400Y0289100D01*
M02*
